<?xml version="1.0" encoding="UTF-8" standalone="no"?>
<!-- Created with Inkscape (http://www.inkscape.org/) -->

<svg
   xmlns:dc="http://purl.org/dc/elements/1.1/"
   xmlns:cc="http://creativecommons.org/ns#"
   xmlns:rdf="http://www.w3.org/1999/02/22-rdf-syntax-ns#"
   xmlns:svg="http://www.w3.org/2000/svg"
   xmlns="http://www.w3.org/2000/svg"
   xmlns:sodipodi="http://sodipodi.sourceforge.net/DTD/sodipodi-0.dtd"
   xmlns:inkscape="http://www.inkscape.org/namespaces/inkscape"
   width="297mm"
   height="210mm"
   viewBox="0 0 1052.3622 744.09448"
   id="svg2"
   version="1.1"
   inkscape:version="0.91 r13725"
   sodipodi:docname="UNIFOR_WM_meu.svg">
  <title
     id="title4172">Marca Dagua</title>
  <defs
     id="defs4" />
  <sodipodi:namedview
     id="base"
     pagecolor="#ffffff"
     bordercolor="#666666"
     borderopacity="1.0"
     inkscape:pageopacity="0.0"
     inkscape:pageshadow="2"
     inkscape:zoom="0.7445291"
     inkscape:cx="526.1811"
     inkscape:cy="372.04724"
     inkscape:document-units="mm"
     inkscape:current-layer="layer1"
     showgrid="true"
     inkscape:snap-global="true"
     showguides="false"
     fit-margin-top="3"
     fit-margin-left="3"
     fit-margin-right="3"
     fit-margin-bottom="3"
     inkscape:window-width="1366"
     inkscape:window-height="719"
     inkscape:window-x="0"
     inkscape:window-y="1"
     inkscape:window-maximized="1">
    <inkscape:grid
       type="xygrid"
       id="grid3336"
       originx="50.629918"
       originy="-322.38892" />
  </sodipodi:namedview>
  <metadata
     id="metadata7">
    <rdf:RDF>
      <cc:Work
         rdf:about="">
        <dc:format>image/svg+xml</dc:format>
        <dc:type
           rdf:resource="http://purl.org/dc/dcmitype/StillImage" />
        <dc:title>Marca Dagua</dc:title>
        <dc:creator>
          <cc:Agent>
            <dc:title>Roberto Lima</dc:title>
          </cc:Agent>
        </dc:creator>
        <dc:identifier />
        <dc:date>160806</dc:date>
        <dc:subject>
          <rdf:Bag>
            <rdf:li>marca; dagua; water; mark.</rdf:li>
          </rdf:Bag>
        </dc:subject>
        <cc:license
           rdf:resource="http://creativecommons.org/licenses/by-nc-sa/3.0/" />
      </cc:Work>
      <cc:License
         rdf:about="http://creativecommons.org/licenses/by-nc-sa/3.0/">
        <cc:permits
           rdf:resource="http://creativecommons.org/ns#Reproduction" />
        <cc:permits
           rdf:resource="http://creativecommons.org/ns#Distribution" />
        <cc:requires
           rdf:resource="http://creativecommons.org/ns#Notice" />
        <cc:requires
           rdf:resource="http://creativecommons.org/ns#Attribution" />
        <cc:prohibits
           rdf:resource="http://creativecommons.org/ns#CommercialUse" />
        <cc:permits
           rdf:resource="http://creativecommons.org/ns#DerivativeWorks" />
        <cc:requires
           rdf:resource="http://creativecommons.org/ns#ShareAlike" />
      </cc:License>
    </rdf:RDF>
  </metadata>
  <g
     inkscape:label="Camada 1"
     inkscape:groupmode="layer"
     id="layer1"
     transform="translate(50.629921,14.121213)"
     style="display:inline">
    <g
       transform="matrix(20.582265,0,0,20.582265,-2795.4227,-1042.8396)"
       id="g4932"
       style="fill:#dfdfdf;fill-opacity:1">
      <path
         inkscape:connector-curvature="0"
         id="path3469"
         d="m 158.8463,50.915324 -17.55469,9.382812 7.53125,0.03125 a 13.31749,12.031141 0 0 1 10.17383,-4.269531 13.31749,12.031141 0 0 1 10.24219,4.357422 l 7.3125,0.03125 -17.70508,-9.533203 z"
         style="fill:#dfdfdf;fill-opacity:1;fill-rule:evenodd;stroke:none;stroke-width:0.29055119;stroke-linecap:butt;stroke-linejoin:miter;stroke-miterlimit:4;stroke-dasharray:none;stroke-opacity:1" />
      <path
         inkscape:connector-curvature="0"
         id="ellipse4299"
         d="m 158.99669,63.183561 a 8.7774363,8.0964289 0 0 0 -8.77734,8.097657 8.7774363,8.0964289 0 0 0 7.97265,8.058594 8.0207605,7.6424236 0 0 1 -7.21484,-7.605469 8.0207605,7.6424236 0 0 1 8.01953,-7.642579 8.0207605,7.6424236 0 0 1 8.02149,7.642579 8.0207605,7.6424236 0 0 1 -8.02149,7.642578 8.7774363,8.0964289 0 0 0 8.77734,-8.095703 8.7774363,8.0964289 0 0 0 -8.77734,-8.097657 z"
         style="opacity:1;fill:#dfdfdf;fill-opacity:1;fill-rule:nonzero;stroke:none;stroke-width:0.29055119;stroke-miterlimit:4;stroke-dasharray:none;stroke-dashoffset:0;stroke-opacity:1" />
      <path
         inkscape:connector-curvature="0"
         id="ellipse4292"
         d="m 158.99669,56.024216 a 13.31749,12.031141 0 0 0 -13.31641,12.03125 13.31749,12.031141 0 0 0 13.31641,12.031251 13.31749,12.031141 0 0 0 13.31836,-12.031251 13.31749,12.031141 0 0 0 -13.31836,-12.03125 z m 0,0.757812 A 12.258144,11.274466 0 0 1 171.2545,68.055466 12.258144,11.274466 0 0 1 158.99669,79.330858 12.258144,11.274466 0 0 1 146.73888,68.055466 12.258144,11.274466 0 0 1 158.99669,56.782028 Z"
         style="opacity:1;fill:#dfdfdf;fill-opacity:1;fill-rule:nonzero;stroke:none;stroke-width:0.29055119;stroke-miterlimit:4;stroke-dasharray:none;stroke-dashoffset:0;stroke-opacity:1" />
      <path
         inkscape:connector-curvature="0"
         id="ellipse4273"
         d="m 158.99669,59.855437 a 10.896128,9.7611151 0 0 0 -10.89648,9.759764 10.896128,9.7611151 0 0 0 10.89648,9.76172 9.9881172,9.2314425 0 0 1 -9.98828,-9.230469 9.9881172,9.2314425 0 0 1 9.98828,-9.232422 9.9881172,9.2314425 0 0 1 9.98828,9.232422 9.9881172,9.2314425 0 0 1 -9.98828,9.230469 10.896128,9.7611151 0 0 0 10.89649,-9.76172 10.896128,9.7611151 0 0 0 -10.89649,-9.759764 z"
         style="opacity:1;fill:#dfdfdf;fill-opacity:1;fill-rule:nonzero;stroke:none;stroke-width:0.29055119;stroke-miterlimit:4;stroke-dasharray:none;stroke-dashoffset:0;stroke-opacity:1" />
      <path
         inkscape:connector-curvature="0"
         id="ellipse4277"
         d="m 158.99669,66.513639 a 7.1127501,6.4317427 0 0 0 -7.11328,6.431641 7.1127501,6.4317427 0 0 0 7.11328,6.431641 6.2047396,5.90207 0 0 1 -6.20508,-5.902344 6.2047396,5.90207 0 0 1 6.20508,-5.902345 6.2047396,5.90207 0 0 1 6.20508,5.902345 6.2047396,5.90207 0 0 1 -6.20508,5.902344 7.1127501,6.4317427 0 0 0 7.11328,-6.431641 7.1127501,6.4317427 0 0 0 -7.11328,-6.431641 z"
         style="opacity:1;fill:#dfdfdf;fill-opacity:1;fill-rule:nonzero;stroke:none;stroke-width:0.29055119;stroke-miterlimit:4;stroke-dasharray:none;stroke-dashoffset:0;stroke-opacity:1" />
      <path
         inkscape:connector-curvature="0"
         id="ellipse4279"
         d="m 158.99669,69.238248 a 5.5993991,5.0697269 0 0 0 -5.59961,5.068361 5.5993991,5.0697269 0 0 0 5.10156,5.046874 4.9940586,4.6157217 0 0 1 -4.49609,-4.591796 4.9940586,4.6157217 0 0 1 4.99414,-4.615235 4.9940586,4.6157217 0 0 1 4.99414,4.615235 4.9940586,4.6157217 0 0 1 -4.99414,4.615234 5.5993991,5.0697269 0 0 0 5.59961,-5.070312 5.5993991,5.0697269 0 0 0 -5.59961,-5.068361 z"
         style="opacity:1;fill:#dfdfdf;fill-opacity:1;fill-rule:nonzero;stroke:none;stroke-width:0.29055119;stroke-miterlimit:4;stroke-dasharray:none;stroke-dashoffset:0;stroke-opacity:1" />
      <path
         style="fill:#dfdfdf;fill-opacity:1;fill-rule:evenodd;stroke:none;stroke-width:0.29055119;stroke-linecap:butt;stroke-linejoin:miter;stroke-miterlimit:4;stroke-dasharray:none;stroke-opacity:1"
         d="m 158.84723,85.198527 -17.55469,-9.382812 7.53125,-0.03125 a 13.31749,12.031141 0 0 0 10.17383,4.269531 13.31749,12.031141 0 0 0 10.24219,-4.357422 l 7.3125,-0.03125 -17.70508,9.533203 z"
         id="path4295"
         inkscape:connector-curvature="0" />
      <path
         inkscape:connector-curvature="0"
         id="rect4870"
         d="m 158.99669,70.106254 a 4.9940586,4.6157217 0 0 0 -2.72461,0.75 l 0,6.28125 5.29688,0 0,-6.365235 a 4.9940586,4.6157217 0 0 0 -2.57227,-0.666015 z"
         style="opacity:1;fill:#dfdfdf;fill-opacity:1;fill-rule:nonzero;stroke:none;stroke-width:0.29055119;stroke-miterlimit:4;stroke-dasharray:none;stroke-dashoffset:0;stroke-opacity:1" />
    </g>
  </g>
</svg>
